<svg xmlns="http://www.w3.org/2000/svg" viewBox="0 0 119.15 93.11"><defs><style>.cls-1{fill:#f27380;}.cls-1,.cls-2,.cls-3{stroke:#08486d;stroke-linecap:square;stroke-linejoin:round;stroke-width:8px;}.cls-2{fill:#c06c84;}.cls-3{fill:#f8b195;}</style></defs><title>Asset 25</title><g id="Layer_2" data-name="Layer 2"><g id="Layer_1-2" data-name="Layer 1"><polygon class="cls-1" points="21.73 4 52.86 4.24 35.8 13.52 4.67 13.28 21.73 4"/><rect class="cls-2" x="4.13" y="13.73" width="31.13" height="32.98" transform="translate(39.15 60.58) rotate(-179.56)"/><rect class="cls-2" x="67.03" y="46.72" width="31.13" height="32.98"/><polygon class="cls-1" points="98.16 46.72 67.03 46.72 84.02 37.31 115.15 37.31 98.16 46.72"/><polygon class="cls-3" points="115.15 70.29 98.16 79.7 98.16 46.72 115.15 37.31 115.15 70.29"/><rect class="cls-2" x="36.01" y="13.74" width="31.13" height="32.98"/><polygon class="cls-1" points="67.14 13.74 36.01 13.74 53 4.33 84.13 4.33 67.14 13.74"/><polygon class="cls-3" points="84.13 37.31 67.14 46.72 67.14 13.74 84.13 4.33 84.13 37.31"/><rect class="cls-2" x="18.91" y="56.13" width="31.13" height="32.98"/><polygon class="cls-1" points="50.04 56.13 18.91 56.13 35.9 46.72 67.03 46.72 50.04 56.13"/><polygon class="cls-3" points="67.03 79.7 50.04 89.11 50.04 56.13 67.03 46.72 67.03 79.7"/></g></g></svg>