<svg xmlns="http://www.w3.org/2000/svg" viewBox="0 0 87.45 115.67"><defs><style>.cls-1{fill:#78bf98;}.cls-1,.cls-2,.cls-3{stroke:#08486d;stroke-linecap:square;stroke-linejoin:round;stroke-width:8px;}.cls-2{fill:#aad7a6;}.cls-3{fill:#cee39d;}</style></defs><title>Asset 28</title><g id="Layer_2" data-name="Layer 2"><g id="Layer_1-2" data-name="Layer 1"><rect class="cls-1" x="4" y="13.41" width="31.13" height="32.98"/><polygon class="cls-2" points="35.13 13.41 4 13.41 20.99 4 52.12 4 35.13 13.41"/><polygon class="cls-3" points="52.12 36.98 35.13 46.39 35.13 13.41 52.12 4 52.12 36.98"/><rect class="cls-1" x="35.13" y="46.11" width="31.13" height="32.98"/><polygon class="cls-2" points="66.26 46.11 35.13 46.11 52.12 36.7 83.25 36.7 66.26 46.11"/><polygon class="cls-3" points="83.25 69.68 66.26 79.09 66.26 46.11 83.25 36.7 83.25 69.68"/><rect class="cls-1" x="35.13" y="78.58" width="31.13" height="32.98" transform="translate(100.67 190.51) rotate(-179.56)"/><polygon class="cls-3" points="66.39 78.69 83.45 69.41 83.2 102.39 66.14 111.67 66.39 78.69"/></g></g></svg>