<svg xmlns="http://www.w3.org/2000/svg" viewBox="0 0 104.24 92.78"><defs><style>.cls-1{fill:#78bf98;}.cls-1,.cls-2,.cls-3{stroke:#08486d;stroke-linecap:square;stroke-linejoin:round;stroke-width:8px;}.cls-2{fill:#aad7a6;}.cls-3{fill:#cee39d;}</style></defs><title>Asset 12</title><g id="Layer_2" data-name="Layer 2"><g id="Layer_1-2" data-name="Layer 1"><rect class="cls-1" x="52.12" y="46.39" width="31.13" height="32.98"/><polygon class="cls-2" points="83.25 46.39 52.12 46.39 69.11 36.98 100.24 36.98 83.25 46.39"/><polygon class="cls-3" points="100.24 69.96 83.25 79.37 83.25 46.39 100.24 36.98 100.24 69.96"/><rect class="cls-1" x="21.1" y="13.41" width="31.13" height="32.98"/><polygon class="cls-2" points="52.23 13.41 21.1 13.41 38.09 4 69.22 4 52.23 13.41"/><polygon class="cls-3" points="69.22 36.98 52.23 46.39 52.23 13.41 69.22 4 69.22 36.98"/><rect class="cls-1" x="4" y="55.8" width="31.13" height="32.98"/><polygon class="cls-2" points="35.13 55.8 4 55.8 20.99 46.39 52.12 46.39 35.13 55.8"/><polygon class="cls-3" points="52.12 79.37 35.13 88.78 35.13 55.8 52.12 46.39 52.12 79.37"/></g></g></svg>