<svg xmlns="http://www.w3.org/2000/svg" viewBox="0 0 104.25 124.45"><defs><style>.cls-1{fill:#c06c84;}.cls-1,.cls-2,.cls-3{stroke:#08486d;stroke-linecap:square;stroke-linejoin:round;stroke-width:8px;}.cls-2{fill:#f8b195;}.cls-3{fill:#f27380;}</style></defs><title>Asset 35</title><g id="Layer_2" data-name="Layer 2"><g id="Layer_1-2" data-name="Layer 1"><rect class="cls-1" x="4.07" y="87.41" width="31.13" height="32.98" transform="translate(39.74 207.7) rotate(179.74)"/><polygon class="cls-2" points="35.13 87.34 52.08 77.85 52.23 110.83 35.28 120.31 35.13 87.34"/><rect class="cls-1" x="52.12" y="46.39" width="31.13" height="32.98"/><polygon class="cls-3" points="83.25 46.39 52.13 46.39 69.11 36.98 100.25 36.98 83.25 46.39"/><polygon class="cls-2" points="100.25 69.96 83.25 79.37 83.25 46.39 100.25 36.98 100.25 69.96"/><rect class="cls-1" x="21.11" y="13.41" width="31.13" height="32.98"/><polygon class="cls-3" points="52.24 13.41 21.11 13.41 38.1 4 69.23 4 52.24 13.41"/><polygon class="cls-2" points="69.23 36.98 52.24 46.39 52.24 13.41 69.23 4 69.23 36.98"/><rect class="cls-1" x="4" y="55.8" width="31.13" height="32.98"/><polygon class="cls-3" points="35.13 55.8 4 55.8 21 46.39 52.13 46.39 35.13 55.8"/><polygon class="cls-2" points="52.13 79.37 35.13 88.78 35.13 55.8 52.13 46.39 52.13 79.37"/></g></g></svg>