<svg xmlns="http://www.w3.org/2000/svg" viewBox="0 0 87.25 126.42"><defs><style>.cls-1{fill:#c06c84;}.cls-1,.cls-2,.cls-3{stroke:#08486d;stroke-linecap:square;stroke-linejoin:round;stroke-width:8px;}.cls-2{fill:#6c5c7b;}.cls-3{fill:#365d7e;}</style></defs><title>Asset 31</title><g id="Layer_2" data-name="Layer 2"><g id="Layer_1-2" data-name="Layer 1"><rect class="cls-1" x="4" y="56.13" width="31.13" height="32.98"/><polygon class="cls-2" points="35.13 56.13 4 56.13 20.99 46.72 52.12 46.72 35.13 56.13"/><polygon class="cls-3" points="52.12 79.7 35.13 89.11 35.13 56.13 52.12 46.72 52.12 79.7"/><rect class="cls-1" x="35.13" y="89.44" width="31.13" height="32.98"/><polygon class="cls-2" points="66.26 89.44 35.13 89.44 52.12 80.03 83.25 80.03 66.26 89.44"/><polygon class="cls-3" points="83.25 113.01 66.26 122.42 66.26 89.44 83.25 80.03 83.25 113.01"/><rect class="cls-1" x="21.1" y="13.41" width="31.13" height="32.98"/><polygon class="cls-2" points="52.23 13.41 21.1 13.41 38.09 4 69.22 4 52.23 13.41"/><polygon class="cls-3" points="69.22 36.98 52.23 46.39 52.23 13.41 69.22 4 69.22 36.98"/></g></g></svg>