<svg xmlns="http://www.w3.org/2000/svg" viewBox="0 0 104.19 125.03"><defs><style>.cls-1{fill:#78bf98;}.cls-1,.cls-2,.cls-3{stroke:#08486d;stroke-linecap:square;stroke-linejoin:round;stroke-width:8px;}.cls-2{fill:#aad7a6;}.cls-3{fill:#cee39d;}</style></defs><title>Asset 11</title><g id="Layer_2" data-name="Layer 2"><g id="Layer_1-2" data-name="Layer 1"><rect class="cls-1" x="20.88" y="13.41" width="31.13" height="32.98"/><polygon class="cls-2" points="52.01 13.41 20.88 13.41 37.87 4 69 4 52.01 13.41"/><polygon class="cls-3" points="69 36.98 52.01 46.39 52.01 13.41 69 4 69 36.98"/><rect class="cls-1" x="52.15" y="78.5" width="31.13" height="32.98" transform="translate(135.86 189.67) rotate(179.74)"/><polygon class="cls-3" points="35.13 88.05 52.08 78.56 52.23 111.54 35.28 121.03 35.13 88.05"/><rect class="cls-1" x="20.88" y="45.33" width="31.13" height="32.98" transform="translate(73.16 123.47) rotate(179.74)"/><polygon class="cls-2" points="20.95 78.38 52.08 78.24 35.13 87.72 4 87.86 20.95 78.38"/><rect class="cls-1" x="4.07" y="87.65" width="31.13" height="32.98" transform="translate(39.74 208.19) rotate(179.74)"/><polygon class="cls-2" points="69.03 68.75 100.16 68.61 83.21 78.1 52.08 78.24 69.03 68.75"/><polygon class="cls-3" points="51.93 45.26 68.88 35.77 69.03 68.75 52.08 78.24 51.93 45.26"/><polygon class="cls-3" points="83.1 78.1 100.05 68.61 100.19 101.59 83.24 111.08 83.1 78.1"/></g></g></svg>