<svg xmlns="http://www.w3.org/2000/svg" viewBox="0 0 152.36 135.83"><defs><style>.cls-1{fill:#c06c84;}.cls-1,.cls-2,.cls-3{stroke:#08486d;stroke-linecap:square;stroke-linejoin:round;stroke-width:8px;}.cls-2{fill:#f27380;}.cls-3{fill:#f8b195;}</style></defs><title>Asset 23</title><g id="Layer_2" data-name="Layer 2"><g id="Layer_1-2" data-name="Layer 1"><rect class="cls-1" x="52.12" y="89.44" width="31.13" height="32.98"/><polygon class="cls-2" points="83.25 89.44 52.12 89.44 69.11 80.03 100.24 80.03 83.25 89.44"/><polygon class="cls-3" points="100.24 113.01 83.25 122.42 83.25 89.44 100.24 80.03 100.24 113.01"/><rect class="cls-1" x="69.11" y="47.19" width="31.13" height="32.98"/><polygon class="cls-2" points="100.24 47.19 69.11 47.19 86.1 37.78 117.23 37.78 100.24 47.19"/><polygon class="cls-3" points="117.23 70.76 100.24 80.17 100.24 47.19 117.23 37.78 117.23 70.76"/><rect class="cls-1" x="4" y="98.85" width="31.13" height="32.98"/><polygon class="cls-2" points="35.13 98.85 4 98.85 20.99 89.44 52.12 89.44 35.13 98.85"/><polygon class="cls-3" points="52.12 122.42 35.13 131.83 35.13 98.85 52.12 89.44 52.12 122.42"/><rect class="cls-1" x="38.09" y="13.41" width="31.13" height="32.98"/><polygon class="cls-2" points="69.22 13.41 38.09 13.41 55.08 4 86.21 4 69.22 13.41"/><polygon class="cls-3" points="86.21 36.98 69.22 46.39 69.22 13.41 86.21 4 86.21 36.98"/><rect class="cls-1" x="100.24" y="79.89" width="31.13" height="32.98"/><polygon class="cls-2" points="131.37 79.89 100.24 79.89 117.23 70.48 148.36 70.48 131.37 79.89"/><polygon class="cls-3" points="148.36 103.46 131.37 112.87 131.37 79.89 148.36 70.48 148.36 103.46"/></g></g></svg>