<svg xmlns="http://www.w3.org/2000/svg" viewBox="0 0 104.24 92.64"><defs><style>.cls-1{fill:#c06c84;}.cls-1,.cls-2,.cls-3{stroke:#08486d;stroke-linecap:square;stroke-linejoin:round;stroke-width:8px;}.cls-2{fill:#f27380;}.cls-3{fill:#f8b195;}</style></defs><title>Asset 22</title><g id="Layer_2" data-name="Layer 2"><g id="Layer_1-2" data-name="Layer 1"><rect class="cls-1" x="4" y="55.66" width="31.13" height="32.98"/><polygon class="cls-2" points="35.13 55.66 4 55.66 20.99 46.25 52.12 46.25 35.13 55.66"/><polygon class="cls-3" points="52.12 79.23 35.13 88.64 35.13 55.66 52.12 46.25 52.12 79.23"/><rect class="cls-1" x="20.99" y="13.41" width="31.13" height="32.98"/><polygon class="cls-2" points="52.12 13.41 20.99 13.41 37.98 4 69.11 4 52.12 13.41"/><polygon class="cls-3" points="69.11 36.98 52.12 46.39 52.12 13.41 69.11 4 69.11 36.98"/><rect class="cls-1" x="52.12" y="46.11" width="31.13" height="32.98"/><polygon class="cls-2" points="83.25 46.11 52.12 46.11 69.11 36.7 100.24 36.7 83.25 46.11"/><polygon class="cls-3" points="100.24 69.68 83.25 79.09 83.25 46.11 100.24 36.7 100.24 69.68"/></g></g></svg>