<svg xmlns="http://www.w3.org/2000/svg" viewBox="0 0 104.29 124.96"><defs><style>.cls-1{fill:#c06c84;}.cls-1,.cls-2,.cls-3{stroke:#08486d;stroke-linecap:square;stroke-linejoin:round;stroke-width:8px;}.cls-2{fill:#6c5c7b;}.cls-3{fill:#365d7e;}</style></defs><title>Asset 33</title><g id="Layer_2" data-name="Layer 2"><g id="Layer_1-2" data-name="Layer 1"><rect class="cls-1" x="4.07" y="87.52" width="31.13" height="32.98" transform="translate(39.74 207.93) rotate(179.74)"/><rect class="cls-1" x="21.04" y="13.41" width="31.13" height="32.98"/><polygon class="cls-2" points="52.17 13.41 21.04 13.41 38.03 4 69.16 4 52.17 13.41"/><polygon class="cls-3" points="69.16 36.98 52.17 46.39 52.17 13.41 69.16 4 69.16 36.98"/><rect class="cls-1" x="52.17" y="46.72" width="31.13" height="32.98"/><polygon class="cls-2" points="83.3 46.72 52.17 46.72 69.16 37.31 100.29 37.31 83.3 46.72"/><polygon class="cls-3" points="100.29 70.29 83.3 79.7 83.3 46.72 100.29 37.31 100.29 70.29"/><rect class="cls-1" x="4.05" y="56.13" width="31.13" height="32.98"/><polygon class="cls-2" points="35.18 56.13 4.05 56.13 21.04 46.72 52.17 46.72 35.18 56.13"/><polygon class="cls-3" points="52.17 79.7 35.18 89.11 35.18 56.13 52.17 46.72 52.17 79.7"/><polygon class="cls-3" points="35.16 87.98 52.22 78.7 51.97 111.68 34.91 120.96 35.16 87.98"/></g></g></svg>