<svg xmlns="http://www.w3.org/2000/svg" viewBox="0 0 615.36 375.32"><defs><style>.cls-1{fill:#c06c84;}.cls-1,.cls-2,.cls-3{stroke:#08486d;stroke-linecap:square;stroke-linejoin:round;stroke-width:8px;}.cls-2{fill:#f27380;}.cls-3{fill:#f8b195;}</style></defs><title>Asset 5</title><g id="Layer_2" data-name="Layer 2"><g id="Layer_1-2" data-name="Layer 1"><rect class="cls-1" x="88.56" y="126.8" width="31.13" height="32.98"/><polygon class="cls-2" points="119.69 126.8 88.56 126.8 105.55 117.38 136.68 117.38 119.69 126.8"/><polygon class="cls-3" points="136.68 150.36 119.69 159.78 119.69 126.8 136.68 117.38 136.68 150.36"/><rect class="cls-1" x="119.69" y="160.1" width="31.13" height="32.98"/><polygon class="cls-2" points="150.82 160.1 119.69 160.1 136.68 150.69 167.81 150.69 150.82 160.1"/><polygon class="cls-3" points="167.81 183.67 150.82 193.08 150.82 160.1 167.81 150.69 167.81 183.67"/><rect class="cls-1" x="136.68" y="117.86" width="31.13" height="32.98"/><polygon class="cls-2" points="167.81 117.86 136.68 117.86 153.67 108.44 184.8 108.44 167.81 117.86"/><polygon class="cls-3" points="184.8 141.42 167.81 150.84 167.81 117.86 184.8 108.44 184.8 141.42"/><rect class="cls-1" x="71.57" y="169.52" width="31.13" height="32.98"/><polygon class="cls-2" points="102.7 169.52 71.57 169.52 88.56 160.1 119.69 160.1 102.7 169.52"/><polygon class="cls-3" points="119.69 193.08 102.7 202.5 102.7 169.52 119.69 160.1 119.69 193.08"/><rect class="cls-1" x="105.66" y="84.08" width="31.13" height="32.98"/><polygon class="cls-2" points="136.79 84.08 105.66 84.08 122.65 74.67 153.78 74.67 136.79 84.08"/><polygon class="cls-3" points="153.78 107.64 136.79 117.06 136.79 84.08 153.78 74.67 153.78 107.64"/><rect class="cls-1" x="57.54" y="93.82" width="31.13" height="32.98"/><polygon class="cls-2" points="88.67 93.82 57.54 93.82 74.53 84.41 105.66 84.41 88.67 93.82"/><polygon class="cls-3" points="105.66 117.38 88.67 126.8 88.67 93.82 105.66 84.41 105.66 117.38"/><rect class="cls-1" x="40.55" y="136.54" width="31.13" height="32.98"/><polygon class="cls-2" points="71.68 136.54 40.55 136.54 57.54 127.13 88.67 127.13 71.68 136.54"/><polygon class="cls-3" points="88.67 160.1 71.68 169.52 71.68 136.54 88.67 127.13 88.67 160.1"/><rect class="cls-1" x="23.45" y="178.93" width="31.13" height="32.98"/><polygon class="cls-2" points="54.58 178.93 23.45 178.93 40.44 169.52 71.57 169.52 54.58 178.93"/><polygon class="cls-3" points="71.57 202.5 54.58 211.91 54.58 178.93 71.57 169.52 71.57 202.5"/><rect class="cls-1" x="167.81" y="150.56" width="31.13" height="32.98"/><polygon class="cls-2" points="198.94 150.56 167.81 150.56 184.8 141.15 215.93 141.15 198.94 150.56"/><polygon class="cls-3" points="215.93 174.12 198.94 183.54 198.94 150.56 215.93 141.15 215.93 174.12"/><rect class="cls-1" x="74.95" y="51.1" width="31.13" height="32.98"/><polygon class="cls-2" points="106.08 51.1 74.95 51.1 91.94 41.69 123.07 41.69 106.08 51.1"/><polygon class="cls-3" points="123.07 74.67 106.08 84.08 106.08 51.1 123.07 41.69 123.07 74.67"/><rect class="cls-1" x="199.09" y="215.64" width="31.13" height="32.98" transform="translate(430.34 463.3) rotate(179.74)"/><polygon class="cls-2" points="199.16 248.69 230.29 248.55 213.34 258.04 182.21 258.18 199.16 248.69"/><polygon class="cls-3" points="182.07 225.2 199.01 215.71 199.16 248.69 182.21 258.18 182.07 225.2"/><rect class="cls-1" x="167.81" y="182.47" width="31.13" height="32.98" transform="translate(367.64 397.1) rotate(179.74)"/><polygon class="cls-2" points="167.88 215.52 199.01 215.38 182.06 224.87 150.94 225.01 167.88 215.52"/><polygon class="cls-3" points="150.79 192.03 167.74 182.54 167.88 215.52 150.94 225.01 150.79 192.03"/><rect class="cls-1" x="151.01" y="224.8" width="31.13" height="32.98" transform="translate(334.22 481.82) rotate(179.74)"/><polygon class="cls-2" points="151.08 257.84 182.21 257.7 165.26 267.19 134.13 267.33 151.08 257.84"/><polygon class="cls-3" points="133.99 234.35 150.93 224.87 151.08 257.84 134.13 267.33 133.99 234.35"/><rect class="cls-1" x="215.89" y="172.85" width="31.13" height="32.98" transform="translate(463.75 377.63) rotate(179.74)"/><polygon class="cls-2" points="215.96 205.89 247.09 205.75 230.14 215.24 199.01 215.38 215.96 205.89"/><polygon class="cls-3" points="198.87 182.4 215.81 172.91 215.96 205.89 199.01 215.38 198.87 182.4"/><rect class="cls-1" x="182.18" y="258.44" width="31.13" height="32.98" transform="translate(396.71 548.97) rotate(179.74)"/><polygon class="cls-2" points="182.25 291.49 213.38 291.35 196.43 300.83 165.3 300.97 182.25 291.49"/><polygon class="cls-3" points="165.16 267.99 182.1 258.51 182.25 291.49 165.3 300.97 165.16 267.99"/><rect class="cls-1" x="230.25" y="248.48" width="31.13" height="32.98" transform="translate(492.82 528.84) rotate(179.74)"/><polygon class="cls-2" points="230.33 281.53 261.46 281.39 244.51 290.88 213.38 291.02 230.33 281.53"/><polygon class="cls-3" points="213.23 258.04 230.18 248.55 230.33 281.53 213.38 291.02 213.23 258.04"/><rect class="cls-1" x="247.05" y="205.69" width="31.13" height="32.98" transform="translate(526.23 443.18) rotate(179.74)"/><polygon class="cls-2" points="247.13 238.73 278.26 238.59 261.31 248.08 230.18 248.22 247.13 238.73"/><polygon class="cls-3" points="230.03 215.24 246.98 205.75 247.13 238.73 230.18 248.22 230.03 215.24"/><rect class="cls-1" x="263.97" y="163.22" width="31.13" height="32.98" transform="translate(559.86 358.17) rotate(179.74)"/><polygon class="cls-2" points="264.04 196.27 295.17 196.13 278.22 205.62 247.09 205.75 264.04 196.27"/><polygon class="cls-3" points="246.94 172.78 263.89 163.29 264.04 196.27 247.09 205.75 246.94 172.78"/><rect class="cls-1" x="119.73" y="192.23" width="31.13" height="32.98" transform="translate(271.52 416.84) rotate(179.74)"/><polygon class="cls-2" points="119.81 225.28 150.94 225.14 133.99 234.63 102.86 234.77 119.81 225.28"/><polygon class="cls-3" points="102.71 201.79 119.66 192.3 119.81 225.28 102.86 234.77 102.71 201.79"/><rect class="cls-1" x="213.04" y="291.28" width="31.13" height="32.98" transform="translate(458.57 614.51) rotate(179.74)"/><polygon class="cls-2" points="213.11 324.33 244.24 324.19 227.29 333.68 196.16 333.81 213.11 324.33"/><polygon class="cls-3" points="196.01 300.84 212.96 291.35 213.11 324.33 196.16 333.81 196.01 300.84"/><rect class="cls-1" x="280.93" y="89.11" width="31.13" height="32.98"/><polygon class="cls-2" points="312.06 89.11 280.93 89.11 297.92 79.7 329.05 79.7 312.06 89.11"/><polygon class="cls-3" points="329.05 112.68 312.06 122.09 312.06 89.11 329.05 79.7 329.05 112.68"/><rect class="cls-1" x="312.06" y="122.42" width="31.13" height="32.98"/><polygon class="cls-2" points="343.19 122.42 312.06 122.42 329.05 113.01 360.18 113.01 343.19 122.42"/><polygon class="cls-3" points="360.18 145.99 343.19 155.4 343.19 122.42 360.18 113.01 360.18 145.99"/><rect class="cls-1" x="329.05" y="80.17" width="31.13" height="32.98"/><polygon class="cls-2" points="360.18 80.17 329.05 80.17 346.04 70.76 377.17 70.76 360.18 80.17"/><polygon class="cls-3" points="377.17 103.74 360.18 113.15 360.18 80.17 377.17 70.76 377.17 103.74"/><rect class="cls-1" x="263.94" y="131.83" width="31.13" height="32.98"/><polygon class="cls-2" points="295.07 131.83 263.94 131.83 280.93 122.42 312.06 122.42 295.07 131.83"/><polygon class="cls-3" points="312.06 155.4 295.07 164.81 295.07 131.83 312.06 122.42 312.06 155.4"/><rect class="cls-1" x="298.03" y="46.39" width="31.13" height="32.98"/><polygon class="cls-2" points="329.16 46.39 298.03 46.39 315.02 36.98 346.15 36.98 329.16 46.39"/><polygon class="cls-3" points="346.15 69.96 329.16 79.37 329.16 46.39 346.15 36.98 346.15 69.96"/><rect class="cls-1" x="249.91" y="56.13" width="31.13" height="32.98"/><polygon class="cls-2" points="281.04 56.13 249.91 56.13 266.9 46.72 298.03 46.72 281.04 56.13"/><polygon class="cls-3" points="298.03 79.7 281.04 89.11 281.04 56.13 298.03 46.72 298.03 79.7"/><rect class="cls-1" x="232.92" y="98.85" width="31.13" height="32.98"/><polygon class="cls-2" points="264.05 98.85 232.92 98.85 249.91 89.44 281.04 89.44 264.05 98.85"/><polygon class="cls-3" points="281.04 122.42 264.05 131.83 264.05 98.85 281.04 89.44 281.04 122.42"/><rect class="cls-1" x="215.82" y="141.24" width="31.13" height="32.98"/><polygon class="cls-2" points="246.95 141.24 215.82 141.24 232.81 131.83 263.94 131.83 246.95 141.24"/><polygon class="cls-3" points="263.94 164.81 246.95 174.22 246.95 141.24 263.94 131.83 263.94 164.81"/><rect class="cls-1" x="360.18" y="112.87" width="31.13" height="32.98"/><polygon class="cls-2" points="391.31 112.87 360.18 112.87 377.17 103.46 408.3 103.46 391.31 112.87"/><polygon class="cls-3" points="408.3 136.44 391.31 145.85 391.31 112.87 408.3 103.46 408.3 136.44"/><rect class="cls-1" x="267.32" y="13.41" width="31.13" height="32.98"/><polygon class="cls-2" points="298.45 13.41 267.32 13.41 284.31 4 315.44 4 298.45 13.41"/><polygon class="cls-3" points="315.44 36.98 298.45 46.39 298.45 13.41 315.44 4 315.44 36.98"/><rect class="cls-1" x="391.06" y="178.88" width="31.13" height="32.98" transform="translate(811.74 393.83) rotate(-179.56)"/><polygon class="cls-2" points="390.93 211.74 422.06 211.97 405 221.26 373.87 221.02 390.93 211.74"/><polygon class="cls-3" points="374.12 188.04 391.18 178.76 390.93 211.74 373.87 221.02 374.12 188.04"/><rect class="cls-1" x="360.18" y="145.33" width="31.13" height="32.98" transform="translate(750.25 326.51) rotate(-179.56)"/><polygon class="cls-2" points="360.06 178.19 391.19 178.43 374.12 187.72 343 187.48 360.06 178.19"/><polygon class="cls-3" points="343.25 154.5 360.31 145.22 360.06 178.19 343 187.48 343.25 154.5"/><rect class="cls-1" x="342.87" y="187.45" width="31.13" height="32.98" transform="translate(715.31 410.61) rotate(-179.56)"/><polygon class="cls-2" points="342.75 220.31 373.87 220.55 356.81 229.83 325.68 229.59 342.75 220.31"/><polygon class="cls-3" points="325.93 196.62 343 187.33 342.75 220.31 325.68 229.59 325.93 196.62"/><rect class="cls-1" x="408.37" y="136.29" width="31.13" height="32.98" transform="translate(846.7 308.78) rotate(-179.56)"/><polygon class="cls-2" points="408.25 169.15 439.38 169.39 422.31 178.67 391.19 178.43 408.25 169.15"/><polygon class="cls-3" points="391.44 145.45 408.5 136.17 408.25 169.15 391.19 178.43 391.44 145.45"/><rect class="cls-1" x="373.63" y="221.47" width="31.13" height="32.98" transform="translate(776.56 478.87) rotate(-179.56)"/><polygon class="cls-2" points="373.5 254.33 404.63 254.56 387.57 263.85 356.44 263.61 373.5 254.33"/><polygon class="cls-3" points="356.69 230.63 373.76 221.35 373.5 254.33 356.44 263.61 356.69 230.63"/><rect class="cls-1" x="421.82" y="212.09" width="31.13" height="32.98" transform="translate(873.02 460.49) rotate(-179.56)"/><polygon class="cls-2" points="421.7 244.95 452.83 245.19 435.76 254.47 404.64 254.24 421.7 244.95"/><polygon class="cls-3" points="404.89 221.26 421.95 211.97 421.7 244.95 404.64 254.24 404.89 221.26"/><rect class="cls-1" x="439.14" y="169.5" width="31.13" height="32.98" transform="translate(907.98 375.45) rotate(-179.56)"/><polygon class="cls-2" points="439.01 202.36 470.14 202.6 453.08 211.88 421.95 211.65 439.01 202.36"/><polygon class="cls-3" points="422.2 178.67 439.26 169.38 439.01 202.36 421.95 211.65 422.2 178.67"/><rect class="cls-1" x="456.56" y="127.24" width="31.13" height="32.98" transform="translate(943.15 291.06) rotate(-179.56)"/><polygon class="cls-2" points="456.44 160.1 487.57 160.34 470.51 169.62 439.38 169.39 456.44 160.1"/><polygon class="cls-3" points="439.63 136.41 456.69 127.13 456.44 160.1 439.38 169.39 439.63 136.41"/><rect class="cls-1" x="311.99" y="154.51" width="31.13" height="32.98" transform="translate(653.8 344.5) rotate(-179.56)"/><polygon class="cls-2" points="311.86 187.38 342.99 187.61 325.93 196.9 294.8 196.66 311.86 187.38"/><polygon class="cls-3" points="295.05 163.68 312.12 154.4 311.86 187.38 294.8 196.66 295.05 163.68"/><rect class="cls-1" x="404.09" y="254.68" width="31.13" height="32.98" transform="translate(837.23 545.53) rotate(-179.56)"/><polygon class="cls-2" points="403.96 287.54 435.09 287.78 418.03 297.06 386.9 296.82 403.96 287.54"/><polygon class="cls-3" points="387.15 263.84 404.22 254.56 403.96 287.54 386.9 296.82 387.15 263.84"/><rect class="cls-1" x="291.61" y="281.39" width="31.13" height="32.98"/><polygon class="cls-2" points="322.74 281.39 291.61 281.39 308.6 271.98 339.73 271.98 322.74 281.39"/><polygon class="cls-3" points="339.73 304.96 322.74 314.37 322.74 281.39 339.73 271.98 339.73 304.96"/><rect class="cls-1" x="322.74" y="314.7" width="31.13" height="32.98"/><polygon class="cls-2" points="353.87 314.7 322.74 314.7 339.73 305.29 370.86 305.29 353.87 314.7"/><polygon class="cls-3" points="370.86 338.26 353.87 347.68 353.87 314.7 370.86 305.29 370.86 338.26"/><rect class="cls-1" x="339.73" y="272.45" width="31.13" height="32.98"/><polygon class="cls-2" points="370.86 272.45 339.73 272.45 356.72 263.04 387.85 263.04 370.86 272.45"/><polygon class="cls-3" points="387.85 296.02 370.86 305.43 370.86 272.45 387.85 263.04 387.85 296.02"/><rect class="cls-1" x="274.62" y="324.11" width="31.13" height="32.98"/><polygon class="cls-2" points="305.75 324.11 274.62 324.11 291.61 314.7 322.74 314.7 305.75 324.11"/><polygon class="cls-3" points="322.74 347.68 305.75 357.09 305.75 324.11 322.74 314.7 322.74 347.68"/><rect class="cls-1" x="308.72" y="238.67" width="31.13" height="32.98"/><polygon class="cls-2" points="339.85 238.67 308.71 238.67 325.71 229.26 356.84 229.26 339.85 238.67"/><polygon class="cls-3" points="356.84 262.24 339.85 271.65 339.85 238.67 356.84 229.26 356.84 262.24"/><rect class="cls-1" x="260.59" y="248.41" width="31.13" height="32.98"/><polygon class="cls-2" points="291.73 248.41 260.6 248.41 277.58 239 308.71 239 291.73 248.41"/><polygon class="cls-3" points="308.71 271.98 291.73 281.39 291.73 248.41 308.71 239 308.71 271.98"/><rect class="cls-1" x="243.6" y="291.13" width="31.13" height="32.98"/><polygon class="cls-2" points="274.73 291.13 243.6 291.13 260.6 281.72 291.73 281.72 274.73 291.13"/><polygon class="cls-3" points="291.73 314.7 274.73 324.11 274.73 291.13 291.73 281.72 291.73 314.7"/><rect class="cls-1" x="226.5" y="333.52" width="31.13" height="32.98"/><polygon class="cls-2" points="257.63 333.52 226.5 333.52 243.49 324.11 274.62 324.11 257.63 333.52"/><polygon class="cls-3" points="274.62 357.09 257.63 366.5 257.63 333.52 274.62 324.11 274.62 357.09"/><rect class="cls-1" x="370.86" y="305.15" width="31.13" height="32.98"/><polygon class="cls-2" points="401.99 305.15 370.86 305.15 387.85 295.74 418.98 295.74 401.99 305.15"/><polygon class="cls-3" points="418.98 328.72 401.99 338.13 401.99 305.15 418.98 295.74 418.98 328.72"/><rect class="cls-1" x="278" y="205.69" width="31.13" height="32.98"/><polygon class="cls-2" points="309.13 205.69 278 205.69 294.99 196.28 326.12 196.28 309.13 205.69"/><polygon class="cls-3" points="326.12 229.26 309.13 238.67 309.13 205.69 326.12 196.28 326.12 229.26"/><rect class="cls-1" x="69.11" y="286.2" width="31.13" height="32.98"/><polygon class="cls-2" points="100.24 286.2 69.11 286.2 86.1 276.79 117.23 276.79 100.24 286.2"/><polygon class="cls-3" points="117.23 309.77 100.24 319.18 100.24 286.2 117.23 276.79 117.23 309.77"/><rect class="cls-1" x="100.24" y="319.51" width="31.13" height="32.98"/><polygon class="cls-2" points="131.37 319.51 100.24 319.51 117.23 310.1 148.36 310.1 131.37 319.51"/><polygon class="cls-3" points="148.36 343.08 131.37 352.49 131.37 319.51 148.36 310.1 148.36 343.08"/><rect class="cls-1" x="117.23" y="277.26" width="31.13" height="32.98"/><polygon class="cls-2" points="148.36 277.26 117.23 277.26 134.22 267.85 165.35 267.85 148.36 277.26"/><polygon class="cls-3" points="165.35 300.83 148.36 310.24 148.36 277.26 165.35 267.85 165.35 300.83"/><rect class="cls-1" x="52.12" y="328.92" width="31.13" height="32.98"/><polygon class="cls-2" points="83.25 328.92 52.12 328.92 69.11 319.51 100.24 319.51 83.25 328.92"/><polygon class="cls-3" points="100.24 352.49 83.25 361.9 83.25 328.92 100.24 319.51 100.24 352.49"/><rect class="cls-1" x="86.21" y="243.48" width="31.13" height="32.98"/><polygon class="cls-2" points="117.34 243.48 86.21 243.48 103.2 234.07 134.34 234.07 117.34 243.48"/><polygon class="cls-3" points="134.34 267.05 117.34 276.46 117.34 243.48 134.34 234.07 134.34 267.05"/><rect class="cls-1" x="38.09" y="253.22" width="31.13" height="32.98"/><polygon class="cls-2" points="69.22 253.22 38.09 253.22 55.08 243.81 86.21 243.81 69.22 253.22"/><polygon class="cls-3" points="86.21 276.79 69.22 286.2 69.22 253.22 86.21 243.81 86.21 276.79"/><rect class="cls-1" x="21.1" y="295.94" width="31.13" height="32.98"/><polygon class="cls-2" points="52.23 295.94 21.1 295.94 38.09 286.53 69.22 286.53 52.23 295.94"/><polygon class="cls-3" points="69.22 319.51 52.23 328.92 52.23 295.94 69.22 286.53 69.22 319.51"/><rect class="cls-1" x="4" y="338.34" width="31.13" height="32.98"/><polygon class="cls-2" points="35.13 338.34 4 338.34 20.99 328.92 52.12 328.92 35.13 338.34"/><polygon class="cls-3" points="52.12 361.9 35.13 371.31 35.13 338.34 52.12 328.92 52.12 361.9"/><rect class="cls-1" x="148.36" y="309.96" width="31.13" height="32.98"/><polygon class="cls-2" points="179.49 309.96 148.36 309.96 165.35 300.55 196.48 300.55 179.49 309.96"/><polygon class="cls-3" points="196.48 333.53 179.49 342.94 179.49 309.96 196.48 300.55 196.48 333.53"/><rect class="cls-1" x="55.5" y="210.5" width="31.13" height="32.98"/><polygon class="cls-2" points="86.63 210.5 55.5 210.5 72.49 201.09 103.62 201.09 86.63 210.5"/><polygon class="cls-3" points="103.62 234.07 86.63 243.48 86.63 210.5 103.62 201.09 103.62 234.07"/><rect class="cls-1" x="483.98" y="244.95" width="31.13" height="32.98"/><polygon class="cls-2" points="515.11 244.95 483.98 244.95 500.97 235.54 532.1 235.54 515.11 244.95"/><polygon class="cls-3" points="532.1 268.52 515.11 277.93 515.11 244.95 532.1 235.54 532.1 268.52"/><rect class="cls-1" x="515.11" y="278.26" width="31.13" height="32.98"/><polygon class="cls-2" points="546.24 278.26 515.11 278.26 532.1 268.85 563.24 268.85 546.24 278.26"/><polygon class="cls-3" points="563.24 301.83 546.24 311.24 546.24 278.26 563.24 268.85 563.24 301.83"/><rect class="cls-1" x="532.1" y="236.01" width="31.13" height="32.98"/><polygon class="cls-2" points="563.24 236.01 532.1 236.01 549.1 226.6 580.23 226.6 563.24 236.01"/><polygon class="cls-3" points="580.23 259.58 563.24 268.99 563.24 236.01 580.23 226.6 580.23 259.58"/><rect class="cls-1" x="466.99" y="287.67" width="31.13" height="32.98"/><polygon class="cls-2" points="498.12 287.67 466.99 287.67 483.98 278.26 515.11 278.26 498.12 287.67"/><polygon class="cls-3" points="515.11 311.24 498.12 320.65 498.12 287.67 515.11 278.26 515.11 311.24"/><rect class="cls-1" x="501.09" y="202.23" width="31.13" height="32.98"/><polygon class="cls-2" points="532.22 202.23 501.09 202.23 518.08 192.82 549.21 192.82 532.22 202.23"/><polygon class="cls-3" points="549.21 225.8 532.22 235.21 532.22 202.23 549.21 192.82 549.21 225.8"/><rect class="cls-1" x="452.97" y="211.97" width="31.13" height="32.98"/><polygon class="cls-2" points="484.1 211.97 452.97 211.97 469.96 202.56 501.09 202.56 484.1 211.97"/><polygon class="cls-3" points="501.09 235.54 484.1 244.95 484.1 211.97 501.09 202.56 501.09 235.54"/><rect class="cls-1" x="435.97" y="254.69" width="31.13" height="32.98"/><polygon class="cls-2" points="467.11 254.69 435.98 254.69 452.97 245.28 484.1 245.28 467.11 254.69"/><polygon class="cls-3" points="484.1 278.26 467.11 287.67 467.11 254.69 484.1 245.28 484.1 278.26"/><rect class="cls-1" x="418.87" y="297.09" width="31.13" height="32.98"/><polygon class="cls-2" points="450 297.08 418.87 297.08 435.86 287.67 466.99 287.67 450 297.08"/><polygon class="cls-3" points="466.99 320.65 450 330.06 450 297.08 466.99 287.67 466.99 320.65"/><rect class="cls-1" x="563.23" y="268.71" width="31.13" height="32.98"/><polygon class="cls-2" points="594.37 268.71 563.24 268.71 580.23 259.3 611.36 259.3 594.37 268.71"/><polygon class="cls-3" points="611.36 292.28 594.37 301.69 594.37 268.71 611.36 259.3 611.36 292.28"/><rect class="cls-1" x="470.37" y="169.25" width="31.13" height="32.98"/><polygon class="cls-2" points="501.5 169.25 470.37 169.25 487.36 159.84 518.49 159.84 501.5 169.25"/><polygon class="cls-3" points="518.49 192.82 501.5 202.23 501.5 169.25 518.49 159.84 518.49 192.82"/></g></g></svg>