<svg xmlns="http://www.w3.org/2000/svg" viewBox="0 0 638.3 380.89"><defs><style>.cls-1{fill:#78bf98;}.cls-1,.cls-2,.cls-3{stroke:#08486d;stroke-linecap:square;stroke-miterlimit:10;stroke-width:8px;}.cls-2{fill:#aad7a6;}.cls-3{fill:#cee39d;}</style></defs><title>Asset 1</title><g id="Layer_2" data-name="Layer 2"><g id="Layer_1-2" data-name="Layer 1"><rect class="cls-1" x="100.03" y="129.59" width="31.13" height="32.98"/><polygon class="cls-2" points="131.16 129.59 100.03 129.59 117.02 120.17 148.15 120.17 131.16 129.59"/><polygon class="cls-3" points="148.15 153.15 131.16 162.56 131.16 129.59 148.15 120.17 148.15 153.15"/><rect class="cls-1" x="131.16" y="162.89" width="31.13" height="32.98"/><polygon class="cls-2" points="162.29 162.89 131.16 162.89 148.15 153.48 179.28 153.48 162.29 162.89"/><polygon class="cls-3" points="179.28 186.46 162.29 195.87 162.29 162.89 179.28 153.48 179.28 186.46"/><rect class="cls-1" x="148.15" y="120.65" width="31.13" height="32.98"/><polygon class="cls-2" points="179.28 120.64 148.15 120.64 165.15 111.23 196.28 111.23 179.28 120.64"/><polygon class="cls-3" points="196.28 144.21 179.28 153.63 179.28 120.64 196.28 111.23 196.28 144.21"/><rect class="cls-1" x="83.04" y="172.31" width="31.13" height="32.98"/><polygon class="cls-2" points="114.17 172.31 83.04 172.31 100.03 162.89 131.16 162.89 114.17 172.31"/><polygon class="cls-3" points="131.16 195.87 114.17 205.28 114.17 172.31 131.16 162.89 131.16 195.87"/><rect class="cls-1" x="117.14" y="86.87" width="31.13" height="32.98"/><polygon class="cls-2" points="148.27 86.87 117.14 86.87 134.13 77.45 165.26 77.45 148.27 86.87"/><polygon class="cls-3" points="165.26 110.43 148.27 119.84 148.27 86.87 165.26 77.45 165.26 110.43"/><rect class="cls-1" x="69.02" y="96.61" width="31.13" height="32.98"/><polygon class="cls-2" points="100.15 96.61 69.02 96.61 86.01 87.19 117.14 87.19 100.15 96.61"/><polygon class="cls-3" points="117.14 120.17 100.15 129.59 100.15 96.61 117.14 87.19 117.14 120.17"/><rect class="cls-1" x="52.02" y="139.33" width="31.13" height="32.98"/><polygon class="cls-2" points="83.16 139.33 52.02 139.33 69.02 129.91 100.15 129.91 83.16 139.33"/><polygon class="cls-3" points="100.15 162.89 83.16 172.31 83.16 139.33 100.15 129.91 100.15 162.89"/><rect class="cls-1" x="34.92" y="181.72" width="31.13" height="32.98"/><polygon class="cls-2" points="66.05 181.72 34.92 181.72 51.91 172.31 83.04 172.31 66.05 181.72"/><polygon class="cls-3" points="83.04 205.28 66.05 214.7 66.05 181.72 83.04 172.31 83.04 205.28"/><rect class="cls-1" x="179.28" y="153.35" width="31.13" height="32.98"/><polygon class="cls-2" points="210.41 153.35 179.28 153.35 196.28 143.93 227.41 143.93 210.41 153.35"/><polygon class="cls-3" points="227.41 176.91 210.41 186.32 210.41 153.35 227.41 143.93 227.41 176.91"/><rect class="cls-1" x="86.42" y="53.89" width="31.13" height="32.98"/><polygon class="cls-2" points="117.55 53.89 86.42 53.89 103.41 44.47 134.54 44.47 117.55 53.89"/><polygon class="cls-3" points="134.54 77.45 117.55 86.87 117.55 53.89 134.54 44.47 134.54 77.45"/><rect class="cls-1" x="210.56" y="218.43" width="31.13" height="32.98" transform="translate(453.3 468.83) rotate(179.74)"/><polygon class="cls-2" points="210.64 251.48 241.77 251.34 224.82 260.83 193.69 260.97 210.64 251.48"/><polygon class="cls-3" points="193.54 227.99 210.49 218.5 210.64 251.48 193.69 260.97 193.54 227.99"/><rect class="cls-1" x="179.28" y="185.26" width="31.13" height="32.98" transform="translate(390.6 402.63) rotate(179.74)"/><polygon class="cls-2" points="179.36 218.31 210.49 218.17 193.54 227.66 162.41 227.8 179.36 218.31"/><polygon class="cls-3" points="162.26 194.82 179.21 185.33 179.36 218.31 162.41 227.8 162.26 194.82"/><rect class="cls-1" x="162.48" y="227.58" width="31.13" height="32.98" transform="translate(357.18 487.35) rotate(179.74)"/><polygon class="cls-2" points="162.56 260.63 193.69 260.49 176.74 269.98 145.61 270.12 162.56 260.63"/><polygon class="cls-3" points="145.46 237.14 162.41 227.65 162.56 260.63 145.61 270.12 145.46 237.14"/><rect class="cls-1" x="227.36" y="175.63" width="31.13" height="32.98" transform="translate(486.71 383.16) rotate(179.74)"/><polygon class="cls-2" points="227.44 208.68 258.57 208.54 241.62 218.03 210.49 218.17 227.44 208.68"/><polygon class="cls-3" points="210.34 185.19 227.29 175.7 227.44 208.68 210.49 218.17 210.34 185.19"/><rect class="cls-1" x="193.65" y="261.22" width="31.13" height="32.98" transform="translate(419.67 554.49) rotate(179.74)"/><polygon class="cls-2" points="193.72 294.27 224.85 294.13 207.91 303.62 176.78 303.76 193.72 294.27"/><polygon class="cls-3" points="176.63 270.78 193.58 261.3 193.72 294.27 176.78 303.76 176.63 270.78"/><rect class="cls-1" x="241.73" y="251.27" width="31.13" height="32.98" transform="translate(515.78 534.37) rotate(179.74)"/><polygon class="cls-2" points="241.8 284.32 272.93 284.18 255.98 293.67 224.85 293.81 241.8 284.32"/><polygon class="cls-3" points="224.71 260.83 241.66 251.34 241.8 284.32 224.85 293.81 224.71 260.83"/><rect class="cls-1" x="258.53" y="208.47" width="31.13" height="32.98" transform="translate(549.19 448.7) rotate(179.74)"/><polygon class="cls-2" points="258.6 241.52 289.73 241.38 272.78 250.87 241.65 251.01 258.6 241.52"/><polygon class="cls-3" points="241.51 218.03 258.45 208.54 258.6 241.52 241.65 251.01 241.51 218.03"/><rect class="cls-1" x="275.44" y="166.01" width="31.13" height="32.98" transform="translate(582.82 363.69) rotate(179.74)"/><polygon class="cls-2" points="275.51 199.06 306.64 198.92 289.7 208.4 258.57 208.54 275.51 199.06"/><polygon class="cls-3" points="258.42 175.56 275.37 166.08 275.51 199.06 258.57 208.54 258.42 175.56"/><rect class="cls-1" x="131.21" y="195.02" width="31.13" height="32.98" transform="translate(294.49 422.37) rotate(179.74)"/><polygon class="cls-2" points="131.28 228.07 162.41 227.93 145.46 237.42 114.33 237.56 131.28 228.07"/><polygon class="cls-3" points="114.19 204.58 131.13 195.09 131.28 228.07 114.33 237.56 114.19 204.58"/><rect class="cls-1" x="224.51" y="294.07" width="31.13" height="32.98" transform="translate(481.54 620.04) rotate(179.74)"/><polygon class="cls-2" points="224.59 327.12 255.72 326.98 238.77 336.46 207.64 336.6 224.59 327.12"/><polygon class="cls-3" points="207.49 303.63 224.44 294.14 224.59 327.12 207.64 336.6 207.49 303.63"/><rect class="cls-1" x="292.4" y="91.9" width="31.13" height="32.98"/><polygon class="cls-2" points="323.54 91.9 292.4 91.9 309.39 82.49 340.52 82.49 323.54 91.9"/><polygon class="cls-3" points="340.52 115.47 323.54 124.88 323.54 91.9 340.52 82.49 340.52 115.47"/><rect class="cls-1" x="323.53" y="125.21" width="31.13" height="32.98"/><polygon class="cls-2" points="354.67 125.21 323.54 125.21 340.52 115.8 371.66 115.8 354.67 125.21"/><polygon class="cls-3" points="371.66 148.77 354.67 158.19 354.67 125.21 371.66 115.8 371.66 148.77"/><rect class="cls-1" x="340.53" y="82.96" width="31.13" height="32.98"/><polygon class="cls-2" points="371.66 82.96 340.52 82.96 357.52 73.55 388.65 73.55 371.66 82.96"/><polygon class="cls-3" points="388.65 106.53 371.66 115.94 371.66 82.96 388.65 73.55 388.65 106.53"/><rect class="cls-1" x="275.41" y="134.62" width="31.13" height="32.98"/><polygon class="cls-2" points="306.54 134.62 275.41 134.62 292.4 125.21 323.54 125.21 306.54 134.62"/><polygon class="cls-3" points="323.54 158.19 306.54 167.6 306.54 134.62 323.54 125.21 323.54 158.19"/><rect class="cls-1" x="309.51" y="49.18" width="31.13" height="32.98"/><polygon class="cls-2" points="340.64 49.18 309.51 49.18 326.5 39.77 357.63 39.77 340.64 49.18"/><polygon class="cls-3" points="357.63 72.75 340.64 82.16 340.64 49.18 357.63 39.77 357.63 72.75"/><rect class="cls-1" x="261.39" y="58.92" width="31.13" height="32.98"/><polygon class="cls-2" points="292.52 58.92 261.39 58.92 278.38 49.51 309.51 49.51 292.52 58.92"/><polygon class="cls-3" points="309.51 82.49 292.52 91.9 292.52 58.92 309.51 49.51 309.51 82.49"/><rect class="cls-1" x="244.4" y="101.64" width="31.13" height="32.98"/><polygon class="cls-2" points="275.53 101.64 244.4 101.64 261.39 92.23 292.52 92.23 275.53 101.64"/><polygon class="cls-3" points="292.52 125.21 275.53 134.62 275.53 101.64 292.52 92.23 292.52 125.21"/><rect class="cls-1" x="227.29" y="144.03" width="31.13" height="32.98"/><polygon class="cls-2" points="258.42 144.03 227.29 144.03 244.28 134.62 275.41 134.62 258.42 144.03"/><polygon class="cls-3" points="275.41 167.6 258.42 177.01 258.42 144.03 275.41 134.62 275.41 167.6"/><rect class="cls-1" x="371.66" y="115.66" width="31.13" height="32.98"/><polygon class="cls-2" points="402.79 115.66 371.66 115.66 388.65 106.25 419.78 106.25 402.79 115.66"/><polygon class="cls-3" points="419.78 139.23 402.79 148.64 402.79 115.66 419.78 106.25 419.78 139.23"/><rect class="cls-1" x="278.79" y="16.2" width="31.13" height="32.98"/><polygon class="cls-2" points="309.93 16.2 278.79 16.2 295.79 6.79 326.92 6.79 309.93 16.2"/><polygon class="cls-3" points="326.92 39.77 309.93 49.18 309.93 16.2 326.92 6.79 326.92 39.77"/><rect class="cls-1" x="402.53" y="181.67" width="31.13" height="32.98" transform="translate(834.67 399.49) rotate(-179.56)"/><polygon class="cls-2" points="402.41 214.53 433.54 214.76 416.47 224.05 385.35 223.81 402.41 214.53"/><polygon class="cls-3" points="385.6 190.83 402.66 181.55 402.41 214.53 385.35 223.81 385.6 190.83"/><rect class="cls-1" x="371.66" y="148.12" width="31.13" height="32.98" transform="translate(773.18 332.17) rotate(-179.56)"/><polygon class="cls-2" points="371.53 180.98 402.66 181.22 385.6 190.5 354.47 190.27 371.53 180.98"/><polygon class="cls-3" points="354.72 157.29 371.78 148 371.53 180.98 354.47 190.27 354.72 157.29"/><rect class="cls-1" x="354.34" y="190.24" width="31.13" height="32.98" transform="translate(738.23 416.27) rotate(-179.56)"/><polygon class="cls-2" points="354.22 223.1 385.35 223.34 368.29 232.62 337.16 232.38 354.22 223.1"/><polygon class="cls-3" points="337.41 199.41 354.47 190.12 354.22 223.1 337.16 232.38 337.41 199.41"/><rect class="cls-1" x="419.85" y="139.08" width="31.13" height="32.98" transform="translate(869.63 314.45) rotate(-179.56)"/><polygon class="cls-2" points="419.72 171.94 450.85 172.18 433.79 181.46 402.66 181.22 419.72 171.94"/><polygon class="cls-3" points="402.91 148.24 419.97 138.96 419.72 171.94 402.66 181.22 402.91 148.24"/><rect class="cls-1" x="385.1" y="224.26" width="31.13" height="32.98" transform="translate(799.49 484.54) rotate(-179.56)"/><polygon class="cls-2" points="384.98 257.12 416.11 257.35 399.05 266.63 367.92 266.4 384.98 257.12"/><polygon class="cls-3" points="368.17 233.42 385.23 224.14 384.98 257.12 367.92 266.4 368.17 233.42"/><rect class="cls-1" x="433.3" y="214.88" width="31.13" height="32.98" transform="translate(895.95 466.16) rotate(-179.56)"/><polygon class="cls-2" points="433.17 247.74 464.3 247.98 447.24 257.26 416.11 257.02 433.17 247.74"/><polygon class="cls-3" points="416.36 224.05 433.42 214.76 433.17 247.74 416.11 257.02 416.36 224.05"/><rect class="cls-1" x="450.61" y="172.29" width="31.13" height="32.98" transform="translate(930.91 381.11) rotate(-179.56)"/><polygon class="cls-2" points="450.49 205.15 481.62 205.39 464.56 214.67 433.43 214.44 450.49 205.15"/><polygon class="cls-3" points="433.68 181.46 450.74 172.17 450.49 205.15 433.43 214.44 433.68 181.46"/><rect class="cls-1" x="468.04" y="130.03" width="31.13" height="32.98" transform="translate(966.08 296.72) rotate(-179.56)"/><polygon class="cls-2" points="467.91 162.89 499.04 163.13 481.98 172.41 450.85 172.18 467.91 162.89"/><polygon class="cls-3" points="451.1 139.2 468.17 129.91 467.91 162.89 450.85 172.18 451.1 139.2"/><rect class="cls-1" x="323.46" y="157.3" width="31.13" height="32.98" transform="translate(676.72 350.16) rotate(-179.56)"/><polygon class="cls-2" points="323.34 190.16 354.47 190.4 337.41 199.68 306.28 199.45 323.34 190.16"/><polygon class="cls-3" points="306.53 166.47 323.59 157.19 323.34 190.16 306.28 199.45 306.53 166.47"/><rect class="cls-1" x="415.57" y="257.47" width="31.13" height="32.98" transform="translate(860.16 551.19) rotate(-179.56)"/><polygon class="cls-2" points="415.44 290.33 446.57 290.56 429.51 299.85 398.38 299.61 415.44 290.33"/><polygon class="cls-3" points="398.63 266.63 415.69 257.35 415.44 290.33 398.38 299.61 398.63 266.63"/><rect class="cls-1" x="303.09" y="284.18" width="31.13" height="32.98"/><polygon class="cls-2" points="334.22 284.18 303.09 284.18 320.08 274.77 351.21 274.77 334.22 284.18"/><polygon class="cls-3" points="351.21 307.75 334.22 317.16 334.22 284.18 351.21 274.77 351.21 307.75"/><rect class="cls-1" x="334.22" y="317.49" width="31.13" height="32.98"/><polygon class="cls-2" points="365.35 317.49 334.22 317.49 351.21 308.07 382.34 308.07 365.35 317.49"/><polygon class="cls-3" points="382.34 341.05 365.35 350.46 365.35 317.49 382.34 308.07 382.34 341.05"/><rect class="cls-1" x="351.21" y="275.24" width="31.13" height="32.98"/><polygon class="cls-2" points="382.34 275.24 351.21 275.24 368.2 265.83 399.33 265.83 382.34 275.24"/><polygon class="cls-3" points="399.33 298.81 382.34 308.22 382.34 275.24 399.33 265.83 399.33 298.81"/><rect class="cls-1" x="286.1" y="326.9" width="31.13" height="32.98"/><polygon class="cls-2" points="317.23 326.9 286.1 326.9 303.09 317.49 334.22 317.49 317.23 326.9"/><polygon class="cls-3" points="334.22 350.46 317.23 359.88 317.23 326.9 334.22 317.49 334.22 350.46"/><rect class="cls-1" x="320.19" y="241.46" width="31.13" height="32.98"/><polygon class="cls-2" points="351.32 241.46 320.19 241.46 337.18 232.05 368.31 232.05 351.32 241.46"/><polygon class="cls-3" points="368.31 265.03 351.32 274.44 351.32 241.46 368.31 232.05 368.31 265.03"/><rect class="cls-1" x="272.07" y="251.2" width="31.13" height="32.98"/><polygon class="cls-2" points="303.2 251.2 272.07 251.2 289.06 241.79 320.19 241.79 303.2 251.2"/><polygon class="cls-3" points="320.19 274.77 303.2 284.18 303.2 251.2 320.19 241.79 320.19 274.77"/><rect class="cls-1" x="255.08" y="293.92" width="31.13" height="32.98"/><polygon class="cls-2" points="286.21 293.92 255.08 293.92 272.07 284.51 303.2 284.51 286.21 293.92"/><polygon class="cls-3" points="303.2 317.49 286.21 326.9 286.21 293.92 303.2 284.51 303.2 317.49"/><rect class="cls-1" x="237.98" y="336.31" width="31.13" height="32.98"/><polygon class="cls-2" points="269.11 336.31 237.98 336.31 254.97 326.9 286.1 326.9 269.11 336.31"/><polygon class="cls-3" points="286.1 359.88 269.11 369.29 269.11 336.31 286.1 326.9 286.1 359.88"/><rect class="cls-1" x="382.34" y="307.94" width="31.13" height="32.98"/><polygon class="cls-2" points="413.47 307.94 382.34 307.94 399.33 298.53 430.46 298.53 413.47 307.94"/><polygon class="cls-3" points="430.46 331.51 413.47 340.92 413.47 307.94 430.46 298.53 430.46 331.51"/><rect class="cls-1" x="289.48" y="208.48" width="31.13" height="32.98"/><polygon class="cls-2" points="320.61 208.48 289.48 208.48 306.47 199.07 337.6 199.07 320.61 208.48"/><polygon class="cls-3" points="337.6 232.05 320.61 241.46 320.61 208.48 337.6 199.07 337.6 232.05"/><rect class="cls-1" x="80.59" y="288.99" width="31.13" height="32.98"/><polygon class="cls-2" points="111.72 288.99 80.59 288.99 97.58 279.58 128.71 279.58 111.72 288.99"/><polygon class="cls-3" points="128.71 312.56 111.72 321.97 111.72 288.99 128.71 279.58 128.71 312.56"/><rect class="cls-1" x="111.72" y="322.3" width="31.13" height="32.98"/><polygon class="cls-2" points="142.85 322.3 111.72 322.3 128.71 312.89 159.84 312.89 142.85 322.3"/><polygon class="cls-3" points="159.84 345.87 142.85 355.28 142.85 322.3 159.84 312.89 159.84 345.87"/><rect class="cls-1" x="128.71" y="280.05" width="31.13" height="32.98"/><polygon class="cls-2" points="159.84 280.05 128.71 280.05 145.7 270.64 176.83 270.64 159.84 280.05"/><polygon class="cls-3" points="176.83 303.62 159.84 313.03 159.84 280.05 176.83 270.64 176.83 303.62"/><rect class="cls-1" x="63.6" y="331.71" width="31.13" height="32.98"/><polygon class="cls-2" points="94.73 331.71 63.6 331.71 80.59 322.3 111.72 322.3 94.73 331.71"/><polygon class="cls-3" points="111.72 355.28 94.73 364.69 94.73 331.71 111.72 322.3 111.72 355.28"/><rect class="cls-1" x="97.69" y="246.27" width="31.13" height="32.98"/><polygon class="cls-2" points="128.82 246.27 97.69 246.27 114.68 236.86 145.81 236.86 128.82 246.27"/><polygon class="cls-3" points="145.81 269.84 128.82 279.25 128.82 246.27 145.81 236.86 145.81 269.84"/><rect class="cls-1" x="49.57" y="256.01" width="31.13" height="32.98"/><polygon class="cls-2" points="80.7 256.01 49.57 256.01 66.56 246.6 97.69 246.6 80.7 256.01"/><polygon class="cls-3" points="97.69 279.58 80.7 288.99 80.7 256.01 97.69 246.6 97.69 279.58"/><rect class="cls-1" x="32.58" y="298.73" width="31.13" height="32.98"/><polygon class="cls-2" points="63.71 298.73 32.58 298.73 49.57 289.32 80.7 289.32 63.71 298.73"/><polygon class="cls-3" points="80.7 322.3 63.71 331.71 63.71 298.73 80.7 289.32 80.7 322.3"/><rect class="cls-1" x="15.47" y="341.12" width="31.13" height="32.98"/><polygon class="cls-2" points="46.6 341.13 15.47 341.13 32.47 331.71 63.6 331.71 46.6 341.13"/><polygon class="cls-3" points="63.6 364.69 46.6 374.1 46.6 341.13 63.6 331.71 63.6 364.69"/><rect class="cls-1" x="159.84" y="312.75" width="31.13" height="32.98"/><polygon class="cls-2" points="190.97 312.75 159.84 312.75 176.83 303.34 207.96 303.34 190.97 312.75"/><polygon class="cls-3" points="207.96 336.32 190.97 345.73 190.97 312.75 207.96 303.34 207.96 336.32"/><rect class="cls-1" x="66.98" y="213.29" width="31.13" height="32.98"/><polygon class="cls-2" points="98.11 213.29 66.98 213.29 83.97 203.88 115.1 203.88 98.11 213.29"/><polygon class="cls-3" points="115.1 236.86 98.11 246.27 98.11 213.29 115.1 203.88 115.1 236.86"/><rect class="cls-1" x="495.46" y="247.74" width="31.13" height="32.98"/><polygon class="cls-2" points="526.59 247.74 495.46 247.74 512.45 238.33 543.58 238.33 526.59 247.74"/><polygon class="cls-3" points="543.58 271.31 526.59 280.72 526.59 247.74 543.58 238.33 543.58 271.31"/><rect class="cls-1" x="526.59" y="281.05" width="31.13" height="32.98"/><polygon class="cls-2" points="557.72 281.05 526.59 281.05 543.58 271.64 574.71 271.64 557.72 281.05"/><polygon class="cls-3" points="574.71 304.62 557.72 314.03 557.72 281.05 574.71 271.64 574.71 304.62"/><rect class="cls-1" x="543.58" y="238.8" width="31.13" height="32.98"/><polygon class="cls-2" points="574.71 238.8 543.58 238.8 560.57 229.39 591.7 229.39 574.71 238.8"/><polygon class="cls-3" points="591.7 262.37 574.71 271.78 574.71 238.8 591.7 229.39 591.7 262.37"/><rect class="cls-1" x="478.47" y="290.46" width="31.13" height="32.98"/><polygon class="cls-2" points="509.6 290.46 478.47 290.46 495.46 281.05 526.59 281.05 509.6 290.46"/><polygon class="cls-3" points="526.59 314.03 509.6 323.44 509.6 290.46 526.59 281.05 526.59 314.03"/><rect class="cls-1" x="512.56" y="205.02" width="31.13" height="32.98"/><polygon class="cls-2" points="543.69 205.02 512.56 205.02 529.55 195.61 560.68 195.61 543.69 205.02"/><polygon class="cls-3" points="560.68 228.59 543.69 238 543.69 205.02 560.68 195.61 560.68 228.59"/><rect class="cls-1" x="464.44" y="214.76" width="31.13" height="32.98"/><polygon class="cls-2" points="495.57 214.76 464.44 214.76 481.43 205.35 512.56 205.35 495.57 214.76"/><polygon class="cls-3" points="512.56 238.33 495.57 247.74 495.57 214.76 512.56 205.35 512.56 238.33"/><rect class="cls-1" x="447.45" y="257.48" width="31.13" height="32.98"/><polygon class="cls-2" points="478.58 257.48 447.45 257.48 464.44 248.07 495.57 248.07 478.58 257.48"/><polygon class="cls-3" points="495.57 281.05 478.58 290.46 478.58 257.48 495.57 248.07 495.57 281.05"/><rect class="cls-1" x="430.35" y="299.87" width="31.13" height="32.98"/><polygon class="cls-2" points="461.48 299.87 430.35 299.87 447.34 290.46 478.47 290.46 461.48 299.87"/><polygon class="cls-3" points="478.47 323.44 461.48 332.85 461.48 299.87 478.47 290.46 478.47 323.44"/><rect class="cls-1" x="574.71" y="271.5" width="31.13" height="32.98"/><polygon class="cls-2" points="605.84 271.5 574.71 271.5 591.7 262.09 622.83 262.09 605.84 271.5"/><polygon class="cls-3" points="622.83 295.07 605.84 304.48 605.84 271.5 622.83 262.09 622.83 295.07"/><rect class="cls-1" x="481.85" y="172.04" width="31.13" height="32.98"/><polygon class="cls-2" points="512.98 172.04 481.85 172.04 498.84 162.63 529.97 162.63 512.98 172.04"/><polygon class="cls-3" points="529.97 195.61 512.98 205.02 512.98 172.04 529.97 162.63 529.97 195.61"/></g></g></svg>