<svg id="Layer_1" data-name="Layer 1" xmlns="http://www.w3.org/2000/svg" viewBox="0 0 190 190"><defs><style>.cls-1{fill:none;}.cls-2{fill:#a4ba2f;}.cls-3{fill:#a51f48;}.cls-4{fill:#f9c909;}.cls-5{fill:#de940a;}.cls-6{fill:#078887;}</style></defs><title>mslogo</title><path class="cls-1" d="M771.28,321.27l17.22-7.92V239a43.69,43.69,0,0,1-3.94-4.25q-6.36-7.86-6.35-19.3a30.38,30.38,0,0,1,7.89-21,58,58,0,0,1,17.11-12.86L798,168.92H770.5v177h18V332.36l-.29-.13A83.19,83.19,0,0,1,771.28,321.27Z" transform="translate(-763 -163)"/><path class="cls-1" d="M811.1,201.17a20.71,20.71,0,0,0-5.19,14.06,18.58,18.58,0,0,0,5,13.34,41.23,41.23,0,0,0,13.24,8.94c.78.34,1.57.68,2.37,1l-15.32-37.43Z" transform="translate(-763 -163)"/><path class="cls-1" d="M858.25,315.42H858l-23-56.26q-5.13-1.19-10.2-2.47-5.31-1.35-10.17-3.05l32.25,77.47q5.13.4,10.63.4a110.11,110.11,0,0,0,11.27-.59L893,272.67a127.83,127.83,0,0,0-15.61-4.54Z" transform="translate(-763 -163)"/><path class="cls-1" d="M937.8,319.48a55.68,55.68,0,0,1-10.8,9.69v16.75h18V304.25A31.88,31.88,0,0,1,937.8,319.48Z" transform="translate(-763 -163)"/><path class="cls-1" d="M920.18,200.45A58.6,58.6,0,0,0,908,192.5l-24.2,59.83q4.89,1.08,9.81,2.22c2.15.49,4.24,1,6.29,1.6l23.94-57.51Z" transform="translate(-763 -163)"/><path class="cls-1" d="M927,197.05v70.3a52.18,52.18,0,0,1,11.28,9.48A28.35,28.35,0,0,1,945,291V168.92H917.5l-2.78,6.87q18,5.85,27.39,13.7Z" transform="translate(-763 -163)"/><path class="cls-1" d="M937.8,319.48a31.88,31.88,0,0,0,7.2-15.23V291a28.35,28.35,0,0,0-6.72-14.15A52.18,52.18,0,0,0,927,267.35v61.82A55.68,55.68,0,0,0,937.8,319.48Z" transform="translate(-763 -163)"/><path class="cls-1" d="M786.1,194.5a30.38,30.38,0,0,0-7.89,21q0,11.43,6.35,19.3A43.69,43.69,0,0,0,788.5,239V192.17h.5l25.59,61.47q4.86,1.7,10.17,3.05,5.07,1.29,10.2,2.47l-8.46-20.64c-.8-.33-1.59-.67-2.37-1a41.23,41.23,0,0,1-13.24-8.94,18.58,18.58,0,0,1-5-13.34,20.71,20.71,0,0,1,5.19-14.06l.08-.08-8-19.45A58,58,0,0,0,786.1,194.5Z" transform="translate(-763 -163)"/><path class="cls-1" d="M771.28,321.27a83.19,83.19,0,0,0,16.93,11l.29.13v-19Z" transform="translate(-763 -163)"/><path class="cls-1" d="M883.77,252.33l-6.39,15.8A127.83,127.83,0,0,1,893,272.67l6.88-16.52c-2-.57-4.14-1.11-6.29-1.6Q888.66,253.41,883.77,252.33Z" transform="translate(-763 -163)"/><path class="cls-1" d="M846.84,331.11,853,345.92h9.5l6.24-15a110.11,110.11,0,0,1-11.27.59Q852,331.51,846.84,331.11Z" transform="translate(-763 -163)"/><path class="cls-1" d="M920.18,200.45l3.63-1.81,2.69-6.47h.5v4.88l15.11-7.56q-9.42-7.85-27.39-13.7L908,192.5A58.6,58.6,0,0,1,920.18,200.45Z" transform="translate(-763 -163)"/><path class="cls-1" d="M811.1,201.17a20.71,20.71,0,0,0-5.19,14.06,18.58,18.58,0,0,0,5,13.34,41.23,41.23,0,0,0,13.24,8.94c.78.34,1.57.68,2.37,1l-15.32-37.43Z" transform="translate(-763 -163)"/><path class="cls-1" d="M920.18,200.45A58.6,58.6,0,0,0,908,192.5l-24.2,59.83q4.89,1.08,9.81,2.22c2.15.49,4.24,1,6.29,1.6l23.94-57.51Z" transform="translate(-763 -163)"/><path class="cls-1" d="M858.25,315.42H858l-23-56.26q-5.13-1.19-10.2-2.47-5.31-1.35-10.17-3.05l32.25,77.47q5.13.4,10.63.4a110.11,110.11,0,0,0,11.27-.59L893,272.67a127.83,127.83,0,0,0-15.61-4.54Z" transform="translate(-763 -163)"/><path class="cls-1" d="M937.8,319.48a55.68,55.68,0,0,1-10.8,9.69v16.75h18V304.25A31.88,31.88,0,0,1,937.8,319.48Z" transform="translate(-763 -163)"/><path class="cls-1" d="M771.28,321.27l17.22-7.92V239a43.69,43.69,0,0,1-3.94-4.25q-6.36-7.86-6.35-19.3a30.38,30.38,0,0,1,7.89-21,58,58,0,0,1,17.11-12.86L798,168.92H770.5v177h18V332.36l-.29-.13A83.19,83.19,0,0,1,771.28,321.27Z" transform="translate(-763 -163)"/><path class="cls-1" d="M927,197.05v70.3a52.18,52.18,0,0,1,11.28,9.48A28.35,28.35,0,0,1,945,291V168.92H917.5l-2.78,6.87q18,5.85,27.39,13.7Z" transform="translate(-763 -163)"/><path class="cls-1" d="M883.77,252.33l-6.39,15.8A127.83,127.83,0,0,1,893,272.67l6.88-16.52c-2-.57-4.14-1.11-6.29-1.6Q888.66,253.41,883.77,252.33Z" transform="translate(-763 -163)"/><path class="cls-1" d="M937.8,319.48a31.88,31.88,0,0,0,7.2-15.23V291a28.35,28.35,0,0,0-6.72-14.15A52.18,52.18,0,0,0,927,267.35v61.82A55.68,55.68,0,0,0,937.8,319.48Z" transform="translate(-763 -163)"/><path class="cls-1" d="M920.18,200.45l3.63-1.81,2.69-6.47h.5v4.88l15.11-7.56q-9.42-7.85-27.39-13.7L908,192.5A58.6,58.6,0,0,1,920.18,200.45Z" transform="translate(-763 -163)"/><path class="cls-1" d="M846.84,331.11,853,345.92h9.5l6.24-15a110.11,110.11,0,0,1-11.27.59Q852,331.51,846.84,331.11Z" transform="translate(-763 -163)"/><path class="cls-1" d="M786.1,194.5a30.38,30.38,0,0,0-7.89,21q0,11.43,6.35,19.3A43.69,43.69,0,0,0,788.5,239V192.17h.5l25.59,61.47q4.86,1.7,10.17,3.05,5.07,1.29,10.2,2.47l-8.46-20.64c-.8-.33-1.59-.67-2.37-1a41.23,41.23,0,0,1-13.24-8.94,18.58,18.58,0,0,1-5-13.34,20.71,20.71,0,0,1,5.19-14.06l.08-.08-8-19.45A58,58,0,0,0,786.1,194.5Z" transform="translate(-763 -163)"/><path class="cls-1" d="M771.28,321.27a83.19,83.19,0,0,0,16.93,11l.29.13v-19Z" transform="translate(-763 -163)"/><path class="cls-2" d="M858.25,315.42l19.13-47.29-1.06-.24q-11.93-2.62-25-5.24Q843.06,261,835,259.16l23,56.26Z" transform="translate(-763 -163)"/><path class="cls-2" d="M923.81,198.64l-23.94,57.51a126,126,0,0,1,19.62,7.09,66.27,66.27,0,0,1,7.51,4.11v-70.3Z" transform="translate(-763 -163)"/><path class="cls-2" d="M801.29,248a54.59,54.59,0,0,1-12.79-9v74.33l6.64-3.05Q804,319.36,820,325.44a96.44,96.44,0,0,0,26.89,5.67l-32.25-77.47A102.61,102.61,0,0,1,801.29,248Z" transform="translate(-763 -163)"/><path class="cls-3" d="M763,183.06V329.29A23.7,23.7,0,0,0,786.71,353H928.23A24.77,24.77,0,0,0,953,328.23V189.09A26.09,26.09,0,0,0,926.91,163H783.06A20.06,20.06,0,0,0,763,183.06ZM927,345.92h0V329.17a68.82,68.82,0,0,1-9.4,5.44,110.88,110.88,0,0,1-28.39,8.82,182.52,182.52,0,0,1-32.13,2.86,197.4,197.4,0,0,1-24.62-1.55A165.79,165.79,0,0,1,809,340.09a116.37,116.37,0,0,1-20.49-7.73v13.56h0a18,18,0,0,1-18-18V189a20.1,20.1,0,0,1,20.1-20.1h4a5,5,0,0,1,4.66,3.13l3.93,9.59c1.13-.58,2.28-1.14,3.47-1.68a115.31,115.31,0,0,1,28.09-8.34A180.4,180.4,0,0,1,865.16,169q27.71,0,47.33,6.08l2.23.71,1.51-3.74a5,5,0,0,1,4.65-3.13h3.83A20.29,20.29,0,0,1,945,189.21V291a37.89,37.89,0,0,1,.58,6.7,37,37,0,0,1-.58,6.57v23.67A18,18,0,0,1,927,345.92Z" transform="translate(-763 -163)"/><path class="cls-2" d="M865,248.35c6.23,1.25,12.48,2.59,18.77,4L908,192.5a81.35,81.35,0,0,0-10.49-4.32q-13.85-4.65-33.47-4.64a112.82,112.82,0,0,0-20.39,1.9,78.43,78.43,0,0,0-18.86,5.84,40.39,40.39,0,0,0-13.58,9.81l15.32,37.43a103.44,103.44,0,0,0,16.44,5.06Q853.49,246,865,248.35Z" transform="translate(-763 -163)"/><path class="cls-2" d="M878.63,329.49a77.67,77.67,0,0,0,19.43-6.2,46.33,46.33,0,0,0,14.23-10.24,21.42,21.42,0,0,0,0-28.84,44,44,0,0,0-14.81-9.77q-2.16-.92-4.49-1.77l-24.25,58.25Q873.65,330.42,878.63,329.49Z" transform="translate(-763 -163)"/><path class="cls-3" d="M945,291v13.27a37,37,0,0,0,.58-6.57A37.89,37.89,0,0,0,945,291Z" transform="translate(-763 -163)"/><path class="cls-3" d="M814.59,253.64,789,192.17h-.5V239a54.59,54.59,0,0,0,12.79,9A102.61,102.61,0,0,0,814.59,253.64Z" transform="translate(-763 -163)"/><path class="cls-4" d="M919.49,263.24a126,126,0,0,0-19.62-7.09L893,272.67q2.32.85,4.49,1.77a44,44,0,0,1,14.81,9.77,21.42,21.42,0,0,1,0,28.84,46.33,46.33,0,0,1-14.23,10.24,77.67,77.67,0,0,1-19.43,6.2q-5,.93-9.89,1.43l-4.41,10.62a7.13,7.13,0,0,1-6.58,4.38h0a7.13,7.13,0,0,1-6.58-4.38l-4.33-10.43A96.44,96.44,0,0,1,820,325.44q-16-6.07-24.81-15.14l-6.64,3.05v19A116.37,116.37,0,0,0,809,340.09a165.79,165.79,0,0,0,23.47,4.65,197.4,197.4,0,0,0,24.62,1.55,182.52,182.52,0,0,0,32.13-2.86,110.88,110.88,0,0,0,28.39-8.82,68.82,68.82,0,0,0,9.4-5.44V267.35A66.27,66.27,0,0,0,919.49,263.24Z" transform="translate(-763 -163)"/><polygon class="cls-4" points="164 29.17 163.5 29.17 160.81 35.64 164 34.05 164 29.17"/><path class="cls-4" d="M824.76,191.28a78.43,78.43,0,0,1,18.86-5.84,112.82,112.82,0,0,1,20.39-1.9q19.62,0,33.47,4.64A81.35,81.35,0,0,1,908,192.5l6.75-16.71-2.23-.71Q892.87,169,865.16,169a180.4,180.4,0,0,0-30.39,2.62A115.31,115.31,0,0,0,806.68,180c-1.19.54-2.34,1.1-3.47,1.68l8,19.45A40.39,40.39,0,0,1,824.76,191.28Z" transform="translate(-763 -163)"/><path class="cls-4" d="M876.32,267.89l1.06.24,6.39-15.8c-6.29-1.39-12.54-2.73-18.77-4q-11.52-2.39-22.06-4.77a103.44,103.44,0,0,1-16.44-5.06L835,259.16q8.1,1.88,16.35,3.49Q864.39,265.27,876.32,267.89Z" transform="translate(-763 -163)"/><path class="cls-1" d="M920.18,200.45q-8.85-7.62-22.7-12.27T864,183.54a112.82,112.82,0,0,0-20.39,1.9,78.43,78.43,0,0,0-18.86,5.84,40.44,40.44,0,0,0-13.66,9.89,20.71,20.71,0,0,0-5.19,14.06,18.58,18.58,0,0,0,5,13.34,41.23,41.23,0,0,0,13.24,8.94,99.42,99.42,0,0,0,18.81,6.07Q853.49,246,865,248.35q14.19,2.86,28.58,6.2a132.07,132.07,0,0,1,25.91,8.69,56.53,56.53,0,0,1,18.79,13.59q7.29,8.22,7.3,20.85a32.63,32.63,0,0,1-7.78,21.8,60,60,0,0,1-20.2,15.13,110.88,110.88,0,0,1-28.39,8.82,182.52,182.52,0,0,1-32.13,2.86,197.4,197.4,0,0,1-24.62-1.55A165.79,165.79,0,0,1,809,340.09a116.75,116.75,0,0,1-20.78-7.86,83.19,83.19,0,0,1-16.93-11l23.86-11q8.83,9,24.81,15.13t37.52,6.07a114.48,114.48,0,0,0,21.16-2,77.67,77.67,0,0,0,19.43-6.2,46.33,46.33,0,0,0,14.23-10.24,21.42,21.42,0,0,0,0-28.84,44,44,0,0,0-14.81-9.77,119.92,119.92,0,0,0-21.16-6.55q-11.93-2.62-25-5.24-13.47-2.62-26.55-6a110.28,110.28,0,0,1-23.47-8.7,51.38,51.38,0,0,1-16.73-13.22q-6.36-7.86-6.35-19.3a30.38,30.38,0,0,1,7.89-21A60.2,60.2,0,0,1,806.68,180a115.31,115.31,0,0,1,28.09-8.34A180.4,180.4,0,0,1,865.16,169q27.71,0,47.33,6.08t29.62,14.41Z" transform="translate(-763 -163)"/><path class="cls-1" d="M920.18,200.45q-8.85-7.62-22.7-12.27T864,183.54a112.82,112.82,0,0,0-20.39,1.9,78.43,78.43,0,0,0-18.86,5.84,40.44,40.44,0,0,0-13.66,9.89,20.71,20.71,0,0,0-5.19,14.06,18.58,18.58,0,0,0,5,13.34,41.23,41.23,0,0,0,13.24,8.94,99.42,99.42,0,0,0,18.81,6.07Q853.49,246,865,248.35q14.19,2.86,28.58,6.2a132.07,132.07,0,0,1,25.91,8.69,56.53,56.53,0,0,1,18.79,13.59q7.29,8.22,7.3,20.85a32.63,32.63,0,0,1-7.78,21.8,60,60,0,0,1-20.2,15.13,110.88,110.88,0,0,1-28.39,8.82,182.52,182.52,0,0,1-32.13,2.86,197.4,197.4,0,0,1-24.62-1.55A165.79,165.79,0,0,1,809,340.09a116.75,116.75,0,0,1-20.78-7.86,83.19,83.19,0,0,1-16.93-11l23.86-11q8.83,9,24.81,15.13t37.52,6.07a114.48,114.48,0,0,0,21.16-2,77.67,77.67,0,0,0,19.43-6.2,46.33,46.33,0,0,0,14.23-10.24,21.42,21.42,0,0,0,0-28.84,44,44,0,0,0-14.81-9.77,119.92,119.92,0,0,0-21.16-6.55q-11.93-2.62-25-5.24-13.47-2.62-26.55-6a110.28,110.28,0,0,1-23.47-8.7,51.38,51.38,0,0,1-16.73-13.22q-6.36-7.86-6.35-19.3a30.38,30.38,0,0,1,7.89-21A60.2,60.2,0,0,1,806.68,180a115.31,115.31,0,0,1,28.09-8.34A180.4,180.4,0,0,1,865.16,169q27.71,0,47.33,6.08t29.62,14.41Z" transform="translate(-763 -163)"/><path class="cls-5" d="M779,317.73l9.52-4.38V239a43.69,43.69,0,0,1-3.94-4.25q-6.36-7.86-6.35-19.3a30.38,30.38,0,0,1,7.89-21,58,58,0,0,1,17.11-12.86L799.27,172a5,5,0,0,0-4.62-3.1h-4.14a20,20,0,0,0-20,20v139a18,18,0,0,0,18,18h0V332.36l-.29-.13a91,91,0,0,1-10-5.74A5,5,0,0,1,779,317.73Z" transform="translate(-763 -163)"/><path class="cls-5" d="M920.18,200.45A58.6,58.6,0,0,0,908,192.5l-24.2,59.83q4.89,1.08,9.81,2.22c2.15.49,4.24,1,6.29,1.6l23.94-57.51Z" transform="translate(-763 -163)"/><path class="cls-5" d="M937.8,319.48a55.68,55.68,0,0,1-10.8,9.69v16.75h0a18,18,0,0,0,18-18V304.25A31.88,31.88,0,0,1,937.8,319.48Z" transform="translate(-763 -163)"/><path class="cls-3" d="M858.25,315.42H858l-23-56.26q-5.13-1.19-10.2-2.47-5.31-1.35-10.17-3.05l32.25,77.47q5.13.4,10.63.4a110.11,110.11,0,0,0,11.27-.59L893,272.67a127.83,127.83,0,0,0-15.61-4.54Z" transform="translate(-763 -163)"/><path class="cls-5" d="M927,197.05v70.3a52.18,52.18,0,0,1,11.28,9.48A28.35,28.35,0,0,1,945,291V189a20.08,20.08,0,0,0-20.08-20.08h-4a5,5,0,0,0-4.64,3.13l-1.51,3.74a103,103,0,0,1,20.08,8.64,5,5,0,0,1-.29,8.86Z" transform="translate(-763 -163)"/><path class="cls-5" d="M811.1,201.17a20.71,20.71,0,0,0-5.19,14.06,18.58,18.58,0,0,0,5,13.34,41.23,41.23,0,0,0,13.24,8.94c.78.34,1.57.68,2.37,1l-15.32-37.43Z" transform="translate(-763 -163)"/><path class="cls-6" d="M778.14,326.43a90.88,90.88,0,0,0,10.35,5.94h0v-19l-9.62,4.43A5,5,0,0,0,778.14,326.43Z" transform="translate(-763 -163)"/><path class="cls-6" d="M786.1,194.5a30.38,30.38,0,0,0-7.89,21q0,11.43,6.35,19.3A43.69,43.69,0,0,0,788.5,239V192.17h.5l25.59,61.47q4.86,1.7,10.17,3.05,5.07,1.29,10.2,2.47l-8.46-20.64c-.8-.33-1.59-.67-2.37-1a41.23,41.23,0,0,1-13.24-8.94,18.58,18.58,0,0,1-5-13.34,20.71,20.71,0,0,1,5.19-14.06l.08-.08-8-19.45A58,58,0,0,0,786.1,194.5Z" transform="translate(-763 -163)"/><path class="cls-6" d="M846.84,331.11l4.33,10.43a7.13,7.13,0,0,0,6.58,4.38h0a7.13,7.13,0,0,0,6.58-4.38l4.41-10.62a110.11,110.11,0,0,1-11.27.59Q852,331.51,846.84,331.11Z" transform="translate(-763 -163)"/><path class="cls-6" d="M937.8,319.48a31.88,31.88,0,0,0,7.2-15.23V291a28.35,28.35,0,0,0-6.72-14.15A52.18,52.18,0,0,0,927,267.35v61.82A55.68,55.68,0,0,0,937.8,319.48Z" transform="translate(-763 -163)"/><path class="cls-6" d="M920.18,200.45l3.63-1.81,2.69-6.47h.5v4.88l7.56-3.78a5,5,0,0,0,.28-8.82,103.74,103.74,0,0,0-20.12-8.66L908,192.5A58.6,58.6,0,0,1,920.18,200.45Z" transform="translate(-763 -163)"/><path class="cls-6" d="M883.77,252.33l-6.39,15.8A127.83,127.83,0,0,1,893,272.67l6.88-16.52c-2-.57-4.14-1.11-6.29-1.6Q888.66,253.41,883.77,252.33Z" transform="translate(-763 -163)"/></svg>